# xmcd CD database file
#
# Track frame offsets:
#	150
#	18007
#	34101
#	48446
#	62390
#	74701
#	86417
#	99010
#	110275
#	123061
#	133502
#	147238
#	163635
#	177376
#	193628
#	206563
#	218468
#	228438
#	238091
#	252905
#
# Disc length: 3542 seconds
#
# Revision: 2
# Processed by: cddbd v1.5.2PL0 Copyright (c) Steve Scherf et al.
# Submitted via: CDex 1.95
#
DISCID=080dd414
DTITLE=Various Artist - 75 Country Classics Cd 1-3
DYEAR=1900
DGENRE=Country
TTITLE0=White Line In Fever - Bertie Higgins
TTITLE1=What Am I Gonna Do - Merle Haggard
TTITLE2=No Charge - Tammy Wynette
TTITLE3=Since I Fell For You  - Charlie Rich
TTITLE4=You Are So Beautiful - Tanya Tucker
TTITLE5=Love Will Find You - Merle Haggard
TTITLE6=Crazy Again - Bobby Bare
TTITLE7=San Quentin - Johnny Cash
TTITLE8=I Love You A Thousand Ways - Lefty Frizzell
TTITLE9=She Took Out The Outlaw In Me - Moe Bandy
TTITLE10=It Ain't Me Babe - Johnny Cash
TTITLE11=Someday When Things Are Good  Merle Haggard
TTITLE12=Living Arms - Tanya Tucker
TTITLE13=(My) Elusive Dreams - Charlie Rich
TTITLE14=Tumbling Tumbletweeds  Marty Robbins
TTITLE15=There Goes My Everything - Tammy Wynette
TTITLE16=Delta Dirt - Larry Gatlin
TTITLE17=I'm Gonna Paint Me A Bed Of Roses - Merle Haggard
TTITLE18=Poor Side Of Town - Lynn Anderson
TTITLE19=A Very Special Love Song - Barbara Mandrell
EXTD=
EXTT0=
EXTT1=
EXTT2=
EXTT3=
EXTT4=
EXTT5=
EXTT6=
EXTT7=
EXTT8=
EXTT9=
EXTT10=
EXTT11=
EXTT12=
EXTT13=
EXTT14=
EXTT15=
EXTT16=
EXTT17=
EXTT18=
EXTT19=
PLAYORDER=
